<?xml version="1.0" standalone="no"?>
<!DOCTYPE svg PUBLIC "-//W3C//DTD SVG 20010904//EN"
 "http://www.w3.org/TR/2001/REC-SVG-20010904/DTD/svg10.dtd">
<svg version="1.0" xmlns="http://www.w3.org/2000/svg"
 width="1024.000000pt" height="1024.000000pt" viewBox="0 0 1024.000000 1024.000000"
 preserveAspectRatio="xMidYMid meet">
<metadata>
Created by potrace 1.11, written by Peter Selinger 2001-2013
</metadata>
<g transform="translate(0.000000,1024.000000) scale(0.100000,-0.100000)"
fill="#000000" stroke="none">
<path d="M10 5115 l0 -5115 5115 0 5115 0 0 5115 0 5115 -5115 0 -5115 0 0
-5115z m6387 2977 c172 -60 310 -193 365 -352 19 -55 23 -85 22 -190 -1 -105
-5 -139 -27 -213 -31 -101 -81 -204 -161 -331 -31 -48 -56 -90 -56 -91 0 -2
183 -5 408 -7 481 -4 438 7 597 -148 146 -141 258 -190 440 -190 105 0 180 17
268 61 140 71 237 173 341 361 55 97 69 116 106 135 77 41 155 24 206 -42 24
-32 29 -47 29 -99 0 -53 -24 -130 -189 -606 -103 -300 -197 -559 -207 -577
-12 -18 -41 -42 -71 -57 l-52 -26 -395 0 c-232 0 -411 4 -432 10 -20 6 -52 26
-72 46 -40 40 -39 37 -222 502 l-127 322 -259 0 c-142 0 -259 -2 -259 -4 0
-12 669 -1766 710 -1863 99 -231 259 -510 399 -696 89 -120 105 -151 105 -213
0 -67 -38 -128 -97 -155 -111 -50 -198 -1 -345 195 -136 180 -232 336 -338
547 -74 148 -102 217 -324 799 -89 234 -164 426 -165 428 -5 6 -164 -126 -249
-208 -357 -343 -606 -815 -680 -1290 -8 -52 -20 -158 -26 -235 -14 -179 -27
-253 -57 -340 -66 -185 -195 -312 -378 -372 -65 -21 -105 -26 -215 -30 -122
-4 -244 7 -1260 116 -619 67 -1155 127 -1192 136 -179 39 -290 152 -317 323
-20 124 20 242 112 333 l52 51 -131 126 c-386 375 -814 618 -1314 748 -89 23
-111 33 -142 64 -41 41 -54 86 -44 154 8 54 33 88 127 172 201 180 529 349
824 423 217 54 515 76 725 52 315 -36 647 -156 907 -327 53 -35 98 -64 99 -64
2 0 82 117 178 260 l175 260 -174 452 -173 452 -129 1 c-105 1 -140 5 -193 24
-198 69 -347 220 -357 365 -6 70 19 113 83 146 l48 25 691 -3 c476 -3 702 -7
729 -15 123 -35 174 -192 92 -284 -47 -54 -96 -71 -237 -83 -194 -16 -354 -47
-354 -67 0 -6 223 -592 495 -1302 l495 -1292 120 7 c133 7 216 -4 306 -40 l57
-23 12 56 c23 103 91 303 147 430 187 429 478 791 875 1088 112 84 126 97 119
116 -5 12 -76 195 -157 407 -145 375 -149 387 -149 460 1 87 11 110 110 255
35 51 84 136 110 188 41 82 49 107 52 169 4 63 1 79 -19 118 -37 68 -94 103
-174 108 -57 4 -72 1 -127 -26 -34 -17 -91 -57 -127 -88 -36 -31 -79 -63 -97
-70 -76 -32 -178 -4 -221 60 -86 127 -30 242 184 378 76 49 145 80 226 103 78
22 264 15 345 -13z m1468 -2672 c269 -31 506 -118 735 -271 128 -85 334 -291
419 -419 200 -301 293 -628 278 -975 -32 -738 -548 -1348 -1273 -1505 -191
-41 -466 -42 -657 -1 -481 101 -885 408 -1111 842 -62 118 -115 268 -148 415
-18 84 -22 131 -22 309 -1 184 2 224 22 319 44 204 125 399 236 571 61 94 206
269 215 260 3 -4 40 -95 82 -203 l76 -197 -37 -55 c-52 -76 -115 -205 -145
-294 -50 -149 -59 -209 -59 -401 1 -169 3 -187 32 -298 119 -452 475 -793 934
-893 113 -25 323 -29 443 -10 439 72 811 381 960 796 68 191 89 443 51 633
-93 478 -462 863 -931 972 -93 21 -279 37 -355 29 l-65 -6 -68 178 c-37 98
-64 181 -60 185 24 24 302 35 448 19z m-6510 -876 c61 -30 120 -62 133 -72
l23 -18 -48 -95 c-270 -525 -122 -1152 357 -1513 502 -378 1231 -313 1613 143
l37 44 202 -22 c112 -12 215 -24 231 -27 l27 -6 -51 -74 c-232 -335 -578 -564
-989 -655 -70 -15 -145 -22 -285 -26 -227 -6 -365 13 -557 77 -247 83 -441
203 -634 395 -221 221 -362 474 -430 774 -79 352 -35 727 123 1046 25 50 49
95 54 102 12 14 38 4 194 -73z"/>
<path d="M3513 4903 c-243 -362 -439 -659 -435 -660 10 -4 1322 124 1327 128
2 3 -97 267 -220 588 -123 321 -226 588 -227 593 -2 5 -202 -287 -445 -649z"/>
<path d="M4910 4097 c-91 -26 -173 -97 -213 -186 -33 -70 -30 -189 5 -256 34
-65 95 -127 156 -156 66 -33 196 -34 264 -2 60 28 127 94 158 158 33 70 34
188 2 261 -29 63 -102 136 -164 164 -59 26 -150 33 -208 17z"/>
</g>
</svg>
