<?xml version="1.0" encoding="UTF-8" standalone="no"?>
<svg width="152px" height="105px" viewBox="0 0 152 105" version="1.1" xmlns="http://www.w3.org/2000/svg" xmlns:xlink="http://www.w3.org/1999/xlink">
    <!-- Generator: Sketch 3.7.2 (28276) - http://www.bohemiancoding.com/sketch -->
    <title>Page 1</title>
    <desc>Created with Sketch.</desc>
    <defs></defs>
    <g id="Page-1" stroke="none" stroke-width="1" fill="none" fill-rule="evenodd">
        <g id="Artboard-13" transform="translate(-1220.000000, -202.000000)" fill="#FFFFFF">
            <g id="Page-1" transform="translate(1220.000000, 202.000000)">
                <path d="M105.976823,63.2261538 C103.246698,66.8644406 101.578369,71.4161538 101.578369,76.4194406 C101.578369,88.548042 111.28434,98.2557692 123.41864,98.2557692 C135.399471,98.2557692 145.255973,88.548042 145.255973,76.4194406 C145.255973,64.4362238 135.399471,54.5809091 123.41864,54.5809091 C122.507374,54.5809091 121.593905,54.5809091 120.838311,54.7321678 L118.41292,48.3616783 C119.92778,48.0591608 121.593905,47.9086364 123.41864,47.9086364 C139.188456,47.9086364 151.930021,60.6474126 151.930021,76.4194406 C151.930021,92.1892657 139.188456,104.927308 123.41864,104.927308 C107.643683,104.927308 94.7537894,92.1892657 94.7537894,76.4194406 C94.7537894,68.5312238 98.0911807,61.2546503 103.246698,56.0979021 L105.976823,63.2261538 Z" id="Fill-1"></path>
                <path d="M13.4640425,65.1966294 C11.187714,68.8341818 10.1303227,72.6281329 10.1303227,76.4191469 C10.1303227,88.5484825 19.9860908,98.2554755 32.1203903,98.2554755 C38.7922357,98.2554755 44.7077527,95.374951 48.3462068,90.519986 L56.3853179,91.4319441 C51.3795981,99.6212098 42.2816271,104.927014 32.1203903,104.927014 C16.3469024,104.927014 3.4570087,92.1897063 3.4570087,76.4191469 C3.4570087,71.5671189 4.8213372,66.4081678 7.3987285,62.1626434 C9.36811981,62.9204056 11.6444483,63.9850909 13.4640425,65.1966294" id="Fill-3"></path>
                <path d="M1.02251208,49.8652343 C1.20682126,49.6853392 2.47715942,48.4833462 2.67321739,48.3174021 C8.70401932,43.2906189 17.0955942,40.0224021 26.0518454,40.0224021 C33.7862222,40.0224021 41.3693333,42.6004091 47.7401159,47.3004441 L54.0705121,37.8790804 L47.8010628,21.5636958 C47.0388599,21.7245 46.2700483,21.8243601 45.4645217,21.8243601 C40.7635362,21.8243601 35.7600193,18.3365979 35.7600193,14.5441154 C35.7600193,12.7224021 37.2756135,11.8559685 39.7017391,11.8559685 C43.7961932,11.8559685 45.0114589,11.9661084 52.1348986,11.9661084 L61.8445411,11.9661084 C64.2691981,11.9661084 65.6371981,13.4831014 65.6371981,15.3048147 C65.6371981,17.1235909 64.1171981,18.3365979 62.1492754,18.4885909 L60.1762126,18.6405839 C57.8117681,18.7889056 55.8857005,19.1751294 54.2070918,19.6318427 L72.030744,66.1123322 L73.6711691,65.9537308 C76.3660483,65.6658986 78.6298937,65.9904441 80.665372,67.0771573 C83.5452947,54.2003392 91.1541063,44.2290105 101.39171,37.3643601 L95.9446763,23.1467727 C95.1868792,21.025479 96.0636329,19.0503042 97.834029,16.9238706 L97.8421063,16.930479 C100.019304,13.4463881 100.330647,12.4529266 100.600135,11.4058636 C100.976831,9.97110839 100.485585,8.45044406 99.7204444,7.64862587 C99.2086377,7.11922028 98.319401,6.40404545 96.6841159,6.45250699 C94.7587826,6.47967483 92.7680966,8.34250699 92.0110338,9.0731014 C90.6841546,10.3404441 88.706686,10.475549 87.3673237,9.24712238 C86.0367729,8.01135315 85.9589372,5.93411538 87.1918261,4.60803147 C87.6199227,4.14177273 91.5227246,0.0864230769 96.5827826,0.00271678322 C100.226377,-0.0714440559 103.20543,1.45803147 105.218879,3.88845105 C107.079594,6.14191259 107.736058,9.13110839 107.076657,12.3413182 C106.40257,15.6227517 105.608058,17.0964231 102.77513,21.4131713 C102.740618,21.4638357 102.706841,21.5174371 102.676,21.5651643 L102.717855,21.6701643 L116.269353,21.6701643 C118.243884,21.6701643 119.302744,22.5821224 120.823478,24.4016329 C124.611729,28.8013531 134.922029,30.3161434 139.927749,19.2448846 C141.594609,15.6058636 146.753063,17.4275769 145.237469,21.6701643 L138.868889,40.1751294 C138.412155,41.6899196 137.201295,42.6004091 135.378763,42.6004091 L122.79287,42.6004091 C121.121604,42.6004091 120.058338,41.8419126 119.302744,40.0224021 L114.146493,26.9789056 L104.726164,26.9789056 L116.443382,57.9171923 C118.869507,64.1356888 122.354493,70.0457937 125.541353,73.9902692 C128.419072,77.6307587 123.721758,81.7286958 120.379961,77.7842203 C117.198242,74.1437308 112.952522,67.6227168 110.372193,60.7977168 L103.914029,43.9397098 C93.7204831,51.4093951 87.5890821,62.7126818 86.868,74.4477168 L86.7167343,76.5697448 C86.1094686,85.6680315 80.0419517,88.8540105 72.6115749,88.0962483 L33.0298937,83.8455839 C28.6314396,83.3947448 26.0518454,80.6647448 26.0518454,76.7202692 C26.0518454,74.525549 27.2421449,72.4696049 29.1726184,71.1824371 C22.1321546,63.6077517 13.2985314,57.891493 3.98614493,55.6497797 C3.75777778,55.5939755 2.5116715,55.244465 2.28110145,55.205549 C-0.169256039,54.7671923 -0.735400966,51.6238007 1.02251208,49.8652343 L1.02251208,49.8652343 Z M56.946029,45.3641853 L40.9874976,69.101528 L65.168715,66.7709685 L56.946029,45.3641853 Z M75.3409662,82.787507 C78.5248889,82.787507 81.1008116,80.2080315 81.1008116,77.023521 C81.1008116,73.8397448 78.5248889,71.2632063 75.3409662,71.2632063 C72.3097778,71.2632063 69.5789179,73.8397448 69.5789179,77.023521 C69.5789179,80.2080315 72.3097778,82.787507 75.3409662,82.787507 L75.3409662,82.787507 Z" id="Fill-5"></path>
            </g>
        </g>
    </g>
</svg>